<?xml version="1.0" encoding="UTF-8" standalone="no"?>
<!-- Created with Inkscape (http://www.inkscape.org/) -->

<svg
   width="78.846184mm"
   height="17.369661mm"
   viewBox="0 0 78.846184 17.369661"
   version="1.1"
   id="svg1"
   xml:space="preserve"
   xmlns:inkscape="http://www.inkscape.org/namespaces/inkscape"
   xmlns:sodipodi="http://sodipodi.sourceforge.net/DTD/sodipodi-0.dtd"
   xmlns="http://www.w3.org/2000/svg"
   xmlns:svg="http://www.w3.org/2000/svg"><sodipodi:namedview
     id="namedview1"
     pagecolor="#ffffff"
     bordercolor="#000000"
     borderopacity="0.25"
     inkscape:showpageshadow="2"
     inkscape:pageopacity="0.0"
     inkscape:pagecheckerboard="0"
     inkscape:deskcolor="#d1d1d1"
     inkscape:document-units="mm" /><defs
     id="defs1" /><g
     inkscape:label="Layer 1"
     inkscape:groupmode="layer"
     id="layer1"
     transform="translate(-66.019159,-171.73889)"><path
       style="fill:#ffffff;fill-opacity:1;stroke:#000000;stroke-width:0.3;stroke-dasharray:none;stroke-opacity:1"
       d="m 80.874836,177.08222 0.08357,-4.52526 -0.612735,-0.004 c -0.492669,-0.003 -0.534967,-0.0543 -0.21586,-0.26054 0.549357,-0.35502 5.062818,-0.32982 6.517155,0.0364 4.109881,1.03488 4.625764,6.49054 0.802751,8.48938 -0.871609,0.45572 -1.683403,0.59857 -3.880322,0.68282 l -2.778125,0.10653 z m 5.475387,3.56045 c 1.915749,-0.80045 2.550114,-3.41253 1.386358,-5.70849 -0.707662,-1.39614 -1.775967,-2.07372 -3.612485,-2.29123 l -1.348453,-0.1597 v 4.01413 c 0,3.91551 0.01462,4.02001 0.595312,4.25341 0.889127,0.35739 1.957985,0.3186 2.979268,-0.10812 z m 15.673237,0.49388 c -0.43545,-0.23623 -1.05399,-1.04039 -1.53848,-2.00017 -0.695333,-1.37744 -0.89226,-1.58311 -1.388441,-1.45004 -0.318003,0.0853 -1.173704,0.15668 -1.901558,0.15867 -1.300668,0.004 -1.334398,0.0244 -1.966106,1.21518 -0.688883,1.29856 -0.544114,1.68066 0.643643,1.69885 0.438931,0.007 0.46149,0.0518 0.132292,0.26458 -0.490718,0.31713 -2.563758,0.34686 -2.75372,0.0395 -0.07651,-0.1238 0.164472,-0.62982 0.535524,-1.12448 1.038774,-1.38482 3.592645,-6.60117 3.43412,-7.01428 -0.07754,-0.20207 -0.472142,-0.36922 -0.876891,-0.37144 -0.572356,-0.003 -0.647704,-0.0611 -0.339033,-0.26054 0.218281,-0.14106 0.958805,-0.2583 1.645609,-0.26053 l 1.248733,-0.004 1.970088,4.06428 c 1.16033,2.39374 2.25115,4.28536 2.65387,4.60214 0.37608,0.29583 0.68378,0.61002 0.68378,0.69822 0,0.30743 -1.46057,0.13626 -2.18343,-0.25588 z m -2.939473,-4.94157 c -0.20213,-0.47295 -0.52459,-1.19631 -0.716578,-1.60747 l -0.34907,-0.74758 -0.729699,1.40904 c -0.401334,0.77496 -0.735316,1.49833 -0.742181,1.60747 -0.0069,0.10914 0.643959,0.19843 1.446277,0.19843 h 1.458759 z m 13.648843,1.32291 -4.0396,-4.03489 0.0719,3.57187 c 0.07,3.47774 0.0876,3.57411 0.66724,3.65643 1.03659,0.14721 0.64271,0.57689 -0.52916,0.57726 l -1.12448,3.5e-4 0.0785,-4.36598 0.0785,-4.36597 -0.73994,-0.004 c -0.57497,-0.003 -0.65146,-0.0612 -0.34308,-0.26054 0.21829,-0.14106 0.90144,-0.2583 1.51813,-0.26053 1.08884,-0.004 1.23187,0.10495 4.94736,3.76626 l 3.82612,3.77031 0.17011,-2.4415 c 0.0936,-1.34283 0.0892,-2.92041 -0.01,-3.50573 -0.15323,-0.90696 -0.27641,-1.06422 -0.83361,-1.06422 -0.36851,0 -0.58246,-0.11546 -0.4903,-0.26459 0.0899,-0.14552 0.69647,-0.26458 1.34784,-0.26458 1.10584,0 1.16539,0.0354 0.89858,0.53391 -0.17379,0.32472 -0.27089,2.10057 -0.24784,4.53235 0.038,4.0121 -0.0526,4.44114 -0.94133,4.45469 -0.14612,0.002 -2.08349,-1.81165 -4.30527,-4.03085 z m 13.00689,3.54514 c -2.17956,-1.02264 -3.26828,-3.61257 -2.49877,-5.94423 0.60122,-1.8217 2.96771,-3.35007 5.19344,-3.35412 1.01987,-0.002 3.47466,0.71483 3.7006,1.08041 0.20027,0.32404 -0.61377,1.29937 -1.0845,1.29937 -0.17956,0 -0.30993,-0.20767 -0.28972,-0.46148 0.0548,-0.68761 -1.59278,-1.44548 -2.81743,-1.29602 -2.12677,0.25956 -3.58236,2.23299 -3.28458,4.4531 0.17862,1.33167 1.26856,2.98754 2.32666,3.5347 0.92634,0.47903 2.88867,0.62378 4.07668,0.30072 0.74992,-0.20393 0.76894,-0.1906 0.34447,0.2414 -0.70703,0.71956 -4.25,0.81093 -5.66685,0.14615 z m 13.33926,-0.0923 c 0.17813,-0.17814 0.31555,-1.02012 0.31307,-1.91823 -0.004,-1.55509 -0.0552,-1.67034 -1.78594,-4.04197 -1.41203,-1.93494 -1.91869,-2.44336 -2.44297,-2.45145 -1.3422,-0.0207 0.0995,-0.52307 1.51305,-0.52722 1.02825,-0.003 1.34693,0.0841 1.24824,0.34131 -0.0729,0.18994 0.48305,1.19715 1.23542,2.23824 1.36587,1.89002 1.36862,1.89201 1.8145,1.30829 0.77792,-1.0184 2.12629,-3.05524 2.12629,-3.21196 0,-0.0829 -0.32742,-0.15259 -0.7276,-0.15481 -0.56699,-0.003 -0.64,-0.0607 -0.33073,-0.26054 0.21828,-0.14106 0.99219,-0.25565 1.71979,-0.25464 1.29559,0.002 1.31122,0.0113 0.75679,0.45896 -0.31137,0.25143 -1.23411,1.39764 -2.05052,2.54714 -1.45497,2.04856 -1.48439,2.12592 -1.48439,3.9026 v 1.81261 l 0.74597,0.0717 c 0.43456,0.0418 0.20845,0.16684 0.20845,0.31236 0,0.15189 -0.17831,0.14514 -1.27192,0.14514 -1.48167,0 -1.83445,-0.0706 -1.5875,-0.3175 z"
       id="path4"
       sodipodi:nodetypes="cccssssccssscssscsscsccssscsccsssccsscssscsccsssccccscscccssssscccsscsscssssssscssssssscscssscsssss" /><g
       id="layer1-2"
       transform="translate(62.253216,195.39156)"><path
         style="fill:#ffffff;fill-opacity:1;stroke:#000000;stroke-width:0.3;stroke-dasharray:none;stroke-opacity:1"
         d="m 11.342054,55.873681 c -0.800314,-0.108613 -1.053686,-0.411979 -0.869208,-1.224269 0.10426,-0.459075 1.425207,-4.96014 1.418016,-5.50693 -10e-4,-0.0792 -0.311456,-0.0534 -0.68981,0.0572 -0.606303,0.1773 -0.744419,0.13648 -1.164167,-0.34408 -0.2619383,-0.29989 -0.4762503,-0.63337 -0.4762503,-0.74108 0,-0.21811 -0.07625,-0.19862 3.5988683,-0.91972 1.455503,-0.28559 2.741378,-0.53839 2.8575,-0.56178 0.622236,-0.12533 0.763476,0.0363 0.700159,0.80135 -0.06548,0.79117 -0.0693,0.79412 -1.171746,0.90497 -0.608329,0.0612 -1.188397,0.20405 -1.289039,0.3175 -0.100643,0.11346 -0.496001,1.63503 -0.878575,3.38128 -0.382574,1.74625 -0.728205,3.29407 -0.768068,3.43959 -0.07979,0.291281 -0.51624,0.49795 -1.26768,0.395969 z m 3.320508,-0.879589 c -0.36131,-0.41151 -0.656927,-0.85646 -0.656927,-0.98878 0,-0.53801 1.903521,-2.03168 3.368672,-2.64336 0.8392,-0.35035 1.514761,-0.72254 1.501246,-0.82708 -0.0401,-0.31016 -1.025426,-0.138702 -2.048137,0.35638 l -0.954723,0.46217 -0.449048,-0.44904 c -0.581221,-0.581211 -0.419563,-0.7224 1.60078,-1.39811 1.808299,-0.60479 1.972391,-0.577343 2.999251,0.50161 l 0.62054,0.65202 -0.48706,2.17078 c -0.26787,1.19393 -0.52431,2.30025 -0.569853,2.4585 -0.06103,0.21206 -0.290523,0.24875 -0.872708,0.13953 -1.056319,-0.19816 -1.149248,-0.27708 -0.892085,-0.7576 0.32568,-0.60854 0.03881,-0.50102 -0.881414,0.33035 -0.451008,0.40746 -1.000372,0.74083 -1.22081,0.74083 -0.220439,0 -0.696414,-0.33669 -1.057724,-0.7482 z m 2.72974,-1.76531 c 0.644898,-0.5903 1.022548,-1.06919 0.846666,-1.07364 -0.44574,-0.0113 -2.751666,1.86244 -2.751666,2.23591 0,0.43274 0.487218,0.13548 1.905,-1.16227 z m 12.385304,2.19443 c -1.06563,-0.37946 -1.37917,-0.81017 -1.37657,-1.89096 0.004,-1.69541 1.49854,-3.92415 2.86051,-4.26598 0.58928,-0.1479 1.86502,0.23057 2.22033,0.65869 0.28528,0.34374 0.10853,1.78018 -0.2828,2.29837 -0.15166,0.20083 -0.78803,0.39497 -1.62511,0.49578 -1.37019,0.165 -1.37611,0.16861 -1.44417,0.88051 -0.0376,0.39316 0.0237,0.80684 0.13613,0.91929 0.26536,0.26537 1.24612,-0.36473 1.41989,-0.91222 0.13523,-0.42609 0.8336,-0.53644 1.34504,-0.21253 0.40664,0.25754 -0.11667,0.97878 -1.27427,1.75623 -1.01372,0.68082 -0.8836,0.66289 -1.97898,0.27282 z m 1.77241,-3.77956 c 0.32701,-0.39402 0.5208,-1.40469 0.26934,-1.40469 -0.26175,0 -1.30372,1.3112 -1.30372,1.64058 0,0.27346 0.75445,0.1014 1.03438,-0.23589 z m 15.02556,3.76763 c -1.16363,-0.35831 -1.57603,-1.07749 -1.35798,-2.36815 0.19498,-1.15409 1.27923,-2.95554 2.08191,-3.45905 0.80954,-0.50781 2.07129,-0.43373 2.72752,0.16015 0.34437,0.31165 0.40812,0.56887 0.32461,1.30975 -0.13899,1.23314 -0.4936,1.52694 -2.0088,1.66433 -1.15036,0.10432 -1.28842,0.16827 -1.37832,0.63852 -0.12459,0.65174 0.041,1.32713 0.3254,1.32713 0.11819,0 0.52931,-0.33338 0.9136,-0.74084 0.7544,-0.7999 0.9508,-0.86258 1.60526,-0.51232 0.4151,0.22216 0.41618,0.24069 0.039,0.66599 -0.44283,0.49933 -1.97504,1.65293 -2.16598,1.63076 -0.0698,-0.008 -0.56765,-0.15043 -1.10622,-0.31627 z m 1.76901,-3.66814 c 0.0851,-0.0779 0.2122,-0.47198 0.28237,-0.8758 l 0.1276,-0.73422 -0.75863,0.79065 c -0.87591,0.912888 -0.97875,1.31522 -0.28237,1.10483 0.26193,-0.0791 0.5459,-0.2076 0.63103,-0.28546 z m 6.86797,3.7357 c -0.61274,-0.1584 -0.89198,-0.38331 -1.15146,-0.92745 -0.42832,-0.89818 -0.1967,-1.1689 0.85417,-0.99836 0.65254,0.10589 0.7887,0.21456 0.7887,0.62946 0,0.65806 0.38017,0.64256 0.6343,-0.0259 0.26974,-0.70945 0.0943,-1.07588 -0.6659,-1.39076 -1.29449,-0.5362 -1.52298,-1.81118 -0.5227,-2.91676 0.74941,-0.82831 1.02964,-0.88374 2.37045,-0.46889 1.33013,0.41155 1.27948,0.32961 1.18498,1.91707 -0.0323,0.54334 -0.12182,0.63453 -0.61988,0.63176 -0.93777,-0.005 -1.16084,-0.25799 -0.99725,-1.13001 0.17884,-0.9533 -0.17827,-1.03576 -0.63773,-0.14726 -0.5218,1.00906 -0.409,1.34822 0.63859,1.91993 2.29924,1.2548 0.78827,3.59593 -1.87627,2.90713 z m 12.66225,0.11252 c -0.66662,-0.16034 -0.80006,-0.39991 -0.52223,-0.93759 0.21424,-0.41463 0.13535,-0.38269 -0.46672,0.18894 -0.7734,0.7343 -1.46547,0.86249 -2.38776,0.44227 -0.29652,-0.1351 -0.54067,-0.39704 -0.54256,-0.58208 -0.007,-0.64311 0.91871,-5.20601 1.09639,-5.40673 0.21837,-0.24667 1.68819,-0.17073 1.96021,0.10129 0.12089,0.12088 0.0718,0.34095 -0.12758,0.57191 -0.35641,0.41287 -1.31207,4.28391 -1.10697,4.48392 0.0704,0.0687 0.54585,-0.33525 1.05654,-0.89758 0.89286,-0.98312 1.56984,-2.54869 1.56984,-3.63034 0,-0.66145 0.39905,-0.94823 1.14212,-0.8208 1.15406,0.19793 1.26034,0.26086 0.99018,0.58639 -0.25531,0.30763 -1.26817,4.24345 -1.33487,5.18711 -0.0562,0.79475 -0.34416,0.9496 -1.32659,0.71329 z m 5.86554,-0.0286 c -0.17218,-0.172175 -0.21863,-0.3155 -0.0529,-0.75137 0.33919,-0.89216 0.27413,-0.89572 -0.47758,-0.0261 -0.68416,0.79144 -0.7124,0.8019 -1.48102,0.54823 -1.47233,-0.48591 -1.75752,-1.5077 -0.91976,-3.29537 0.89295,-1.90541 3.31383,-3.70733 3.83906,-2.8575 0.34877,0.56433 0.72336,-0.27495 0.85026,-1.905 0.036,-0.46197 0.1365,-0.52633 0.79178,-0.50686 1.17923,0.035 1.48629,0.21247 1.22208,0.70616 -0.24943,0.46606 -1.90582,7.31675 -1.90936,7.89695 -0.002,0.28711 -0.18079,0.36969 -0.79601,0.36718 -0.43656,-0.002 -0.94089,-0.05066 -1.06654,-0.17631 z m -0.25884,-2.40728 c 0.62756,-1.03195 1.34716,-2.91236 1.17889,-3.08063 -0.22249,-0.22249 -2.19157,1.92918 -2.35259,2.57073 -0.31773,1.26594 0.49832,1.62047 1.1737,0.5099 z m 4.10913,2.36216 -0.65582,-0.19414 0.37456,-1.11351 c 0.206,-0.612434 0.54876,-2.003518 0.76167,-3.09131 l 0.38709,-1.97779 0.81938,0.109 c 0.97979,0.130339 1.35506,0.42714 1.03857,0.82137 -0.25396,0.31634 -1.14034,3.98972 -1.18965,4.93022 -0.0374,0.71407 -0.42603,0.844682 -1.5358,0.51616 z m 4.71604,0.0196 c -1.22314,-0.23663 -1.52407,-0.65857 -1.49778,-2.10005 0.0259,-1.41876 0.84374,-3.16891 1.79862,-3.84884 1.10649,-0.78789 3.67446,-0.40513 3.9229,0.58472 0.23639,0.94187 -0.0842,2.79982 -0.64953,3.76453 -0.98379,1.6787 -1.64225,1.9734 -3.57421,1.59964 z m 1.53369,-1.41114 c 0,1.466916 1.17303,-3.69887 0.40188,-3.8449 -0.74576,-0.14122 -1.87706,2.6489 -1.57004,3.87217 0.17193,0.68504 1.16816,-0.92041 1.16816,-0.0273 z m -62.62445,1.20572 c -0.14288,-0.223247 -0.24348,-0.26611 -0.0741,-0.47301 0.2478,-0.30279 1.33054,-4.59818 1.33054,-5.27847 0,-0.54009 0.41628,-0.68228 1.2971,-0.44304 0.72643,0.1973 0.75295,0.25126 0.48943,0.99579 -0.0949,0.26826 0.0793,0.15841 0.47556,-0.29986 0.70948,-0.82043 1.58182,-0.95648 2.45681,-0.38317 0.57271,0.37526 0.57268,0.31823 0.002,3.22303 -0.29525,1.50273 -0.41066,2.16558 -0.4699,2.69875 -0.0213,0.19178 -1.53793,0.21187 -2.0203,0.0268 -0.30671,-0.1177 -0.30954,-0.17001 -0.0261,-0.48318 0.28825,-0.31852 1.18211,-3.6208 1.18211,-4.3672 0,-0.56537 -0.40435,-0.32086 -1.26046,0.7622 -0.89408,1.1311 -1.31336,2.28433 -1.47662,4.06141 -0.0206,0.22381 -1.67216,0.325334 -1.90597,-0.04 z M 34.23184,54.626404 c -0.304939,-0.70866 -0.40473,-1.418927 0.119366,-2.819682 0.533828,-1.426767 1.72796,-2.83775 2.40164,-2.83775 0.62925,0 1.84034,0.41229 2.20335,0.75009 0.2124,0.19764 0.25144,0.53764 0.144,1.2541 -0.14705,0.98058 -0.14927,0.98278 -0.9264,0.91812 -0.8139,-0.0677 -0.82779,-0.10014 -0.54931,-1.2819 0.10594,-0.44958 0.0601,-0.58208 -0.20144,-0.58208 -0.68827,0 -2.1337,3.80004 -1.63509,4.29865 0.29616,0.29617 1.20288,-0.34247 1.61345,-1.13641 0.26747,-0.51724 0.42435,-0.61607 0.79815,-0.5028 0.25589,0.0776 0.55413,0.15383 0.66277,0.16952 0.10864,0.0157 0.40616,-0.82871 0.66115,-1.87646 l 0.46362,-1.905 0.66519,0.0316 c 1.00842,0.04791 1.41636,0.24758 1.11708,0.54686 -0.13589,0.13588 -0.24706,0.36136 -0.24706,0.50106 0,0.1397 0.32721,-0.0732 0.72713,-0.47314 0.60498,-0.60497 0.82724,-0.70318 1.32292,-0.58455 1.54662,0.37014 1.59715,0.61571 0.84487,4.10569 -0.46312,2.14851 -0.49899,2.22481 -1.07757,2.29195 -0.32918,0.0382 -0.83351,0.0105 -1.12073,-0.0616 -0.50158,-0.12589 -0.50882,-0.15154 -0.18306,-0.64871 0.3869,-0.59048 1.29032,-4.29328 1.09512,-4.48848 -0.15574,-0.15574 -1.06163,0.66552 -1.6681,1.51226 -0.24275,0.33893 -0.59948,1.29143 -0.79272,2.11667 -0.34586,1.47693 -0.36266,1.50131 -1.07253,1.55568 -1.0137,0.0777 -1.36458,-0.1871 -1.04337,-0.78728 0.33005,-0.6167 0.08147,-0.847583 -0.31034,-0.2882 -0.449642,0.641955 -3.331741,1.802868 -4.012086,0.221792 z m 25.844576,0.754518 c -0.29098,-0.075 -0.35323,-0.21666 -0.24506,-0.55753 0.5954,-1.87632 1.0019,-4.03885 0.77352,-4.11498 -0.41762,-0.13921 -0.90336,-0.71436 -0.81945,-0.97029 0.0433,-0.13201 0.35678,-0.27242 0.69668,-0.31203 0.71958,-0.0839 0.92914,-0.34088 0.93362,-1.14507 0.003,-0.5437 0.0626,-0.58187 0.90283,-0.57884 1.21745,0.004 1.61813,0.26094 1.14557,0.7335 -0.48068,0.48069 -0.44141,0.8169 0.12443,1.06515 0.26549,0.11648 0.47625,0.39628 0.47625,0.63227 0,0.32073 -0.16282,0.43912 -0.67177,0.48846 -0.6624,0.0642 -0.67789,0.0917 -1.11125,1.9739 -0.24172,1.04983 -0.43948,2.13972 -0.43948,2.42197 0,0.44289 -0.0942,0.50981 -0.68792,0.48862 -0.37835,-0.0135 -0.86344,-0.0698 -1.07797,-0.12513 z m 19.39756,-6.64609 c -0.87901,-0.2542 -1.03869,-0.54286 -0.58044,-1.04923 0.42452,-0.46908 0.8999,-0.51583 1.67131,-0.16435 0.63153,0.28774 0.64584,0.35447 0.20962,0.97726 -0.36304,0.5183 -0.33994,0.51411 -1.30049,0.23632 z m -30.54334,-0.11685 c -0.17463,-0.0582 -0.45229,-0.14902 -0.61704,-0.20173 -0.51783,-0.16567 1.0172,-1.56396 1.7169,-1.56396 0.32641,0 0.59347,0.0497 0.59347,0.11037 0,0.20497 -1.11346,1.79478 -1.24521,1.77792 -0.0718,-0.009 -0.2735,-0.0644 -0.44812,-0.1226 z m 7.72152,-0.23435 c -0.11878,-0.0855 -0.33797,-0.43262 -0.48708,-0.77132 -0.22133,-0.50275 -0.22053,-0.64789 0.004,-0.79051 0.41561,-0.26362 0.55661,-0.22118 0.80458,0.24216 0.28682,0.53593 0.67708,0.53822 1.15801,0.007 0.29737,-0.3286 0.46416,-0.36985 0.79009,-0.19541 0.3871,0.20717 0.36207,0.26625 -0.39705,0.93688 -0.78627,0.69461 -1.42927,0.89079 -1.87286,0.57139 z m 10.55242,-0.002 c -0.16846,-0.10718 -0.0163,-0.40872 0.4791,-0.94926 0.74448,-0.81237 1.03119,-0.92395 1.54232,-0.60024 0.23613,0.14955 0.18002,0.33342 -0.28971,0.94926 -0.5649,0.74062 -1.17735,0.95291 -1.73171,0.60024 z m -30.64094,-0.71564 c -0.44605,-0.89414 -0.42271,-1.02582 0.1819,-1.02582 0.32901,0 0.56341,0.15284 0.64927,0.42334 0.0739,0.23283 0.20843,0.42333 0.29895,0.42333 0.0905,0 0.337,-0.1905 0.54771,-0.42333 0.40086,-0.44295 1.05379,-0.56151 1.25948,-0.2287 0.19606,0.31723 -1.40664,1.4987 -2.03303,1.4987 -0.42943,0 -0.65396,-0.16575 -0.90428,-0.66752 z"
         id="path1-4"
         sodipodi:nodetypes="ssscssssssssssssssscssscsssssssssssssssssssssssssssssssssssssscssscssscsssssssscsssccsssscsssssssssssssssssssccssssssscsscssssssssssssssssssssssssssssssssssssssssscsscsssssssssssscssssssssscssssssssssssssssscscscscssccsssssssssssss"
         inkscape:export-filename="tanecne studio.svg"
         inkscape:export-xdpi="96"
         inkscape:export-ydpi="96" /><path
         d="m -0.21200511,92.044889 c -0.80031399,-0.10861 -1.05368589,-0.41198 -0.86920799,-1.22427 0.10426007,-0.45908 1.42520706,-4.96014 1.41801606,-5.50693 -0.001,-0.0792 -0.311456,-0.0534 -0.68981007,0.0572 -0.60630292,0.1773 -0.74441899,0.13648 -1.16416689,-0.34408 -0.261938,-0.29989 -0.47625,-0.63337 -0.47625,-0.74108 0,-0.21811 -0.07625,-0.19862 3.5988679,-0.91972 1.4555023,-0.28559 2.7413764,-0.53839 2.8574984,-0.56178 0.6222357,-0.12533 0.7634757,0.0363 0.7001587,0.80135 -0.06548,0.79117 -0.0693,0.79412 -1.1717454,0.90497 -0.6083287,0.0612 -1.1883964,0.20405 -1.2890384,0.3175 -0.100643,0.11346 -0.4960007,1.63503 -0.8785743,3.38128 -0.382574,1.74625 -0.728205,3.29407 -0.768068,3.43959 -0.07979,0.29128 -0.51623997,0.49795 -1.26768001,0.39597 z m 3.32050731,-0.87959 c -0.36131,-0.41151 -0.6569267,-0.85646 -0.6569267,-0.98878 0,-0.53801 1.9035198,-2.03168 3.3686699,-2.64336 0.8391997,-0.35035 1.5147604,-0.72254 1.5012454,-0.82708 -0.0401,-0.31016 -1.0254257,-0.1387 -2.0481361,0.35638 l -0.9547224,0.46217 -0.4490477,-0.44904 c -0.5812207,-0.58121 -0.4195627,-0.7224 1.6007791,-1.39811 1.8082981,-0.60479 1.9723898,-0.57734 2.9992492,0.50161 l 0.6205397,0.65202 -0.4870597,2.17078 c -0.2678697,1.19393 -0.5243097,2.30025 -0.5698527,2.4585 -0.06103,0.21206 -0.2905227,0.24875 -0.8727074,0.13953 -1.0563184,-0.19816 -1.1492474,-0.27708 -0.8920844,-0.7576 0.3256797,-0.60854 0.03881,-0.50102 -0.8814137,0.33035 -0.4510077,0.40746 -1.0003714,0.74083 -1.2208091,0.74083 -0.220439,0 -0.6964137,-0.33669 -1.0577234,-0.7482 z m 2.7297382,-1.76531 c 0.6448977,-0.5903 1.0225474,-1.06919 0.8466657,-1.07364 -0.4457397,-0.0113 -2.7516645,1.86244 -2.7516645,2.23591 0,0.43274 0.4872177,0.13548 1.9049988,-1.16227 z m 12.2736816,2.343258 c -1.0481,-0.425493 -1.267549,-0.958998 -1.264949,-2.039788 0.004,-1.69541 1.49854,-3.92415 2.86051,-4.26598 0.58928,-0.1479 1.86502,0.23057 2.22033,0.65869 0.28528,0.34374 0.10853,1.78018 -0.2828,2.29837 -0.15166,0.20083 -0.78803,0.39497 -1.62511,0.49578 -1.37019,0.165 -1.37611,0.16861 -1.44417,0.88051 -0.0376,0.39316 0.0237,0.80684 0.13613,0.91929 0.26536,0.26537 1.24612,-0.36473 1.41989,-0.91222 0.13523,-0.42609 0.862619,-0.57826 1.34504,-0.21253 0.278017,0.210768 0.02259,0.854361 -0.989016,1.814107 -0.423703,0.401981 -0.774025,0.561603 -1.521029,0.561463 -0.323729,-6.1e-5 -0.574961,-0.08408 -0.854826,-0.197692 z m 1.884031,-3.928388 c 0.32701,-0.39402 0.5208,-1.40469 0.26934,-1.40469 -0.26175,0 -1.30372,1.3112 -1.30372,1.64058 0,0.27346 0.75445,0.1014 1.03438,-0.23589 z m -10.3341007,3.68817 c -0.14288,-0.22325 -0.2434797,-0.26611 -0.0741,-0.47301 0.2478,-0.30279 1.3305397,-4.59818 1.3305397,-5.27847 0,-0.54009 0.416281,-0.68228 1.297101,-0.44304 0.72643,0.1973 0.75295,0.25126 0.48943,0.99579 -0.0949,0.26826 0.0793,0.15841 0.47556,-0.29986 0.70948,-0.82043 1.58182,-0.95648 2.45681,-0.38317 0.57271,0.37526 0.57268,0.31823 0.002,3.22303 -0.29525,1.50273 -0.41066,2.16558 -0.4699,2.69875 -0.0213,0.19178 -1.53793,0.21187 -2.0203,0.0268 -0.30671,-0.1177 -0.30954,-0.17001 -0.0261,-0.48318 0.28825,-0.31852 1.18211,-3.6208 1.18211,-4.3672 0,-0.56537 -0.40435,-0.32086 -1.26046,0.7622 -0.89408,1.1311 -1.31336,2.28433 -1.47662,4.06141 -0.0206,0.22381 -1.6721607,0.32533 -1.9059707,-0.04 z"
         style="fill:#ffffff;fill-opacity:1;stroke:#000000;stroke-width:0.3;stroke-dasharray:none;stroke-opacity:1"
         id="path1-7"
         sodipodi:nodetypes="ssscssssssssssssssscssscsssssssssssscsssssssssssssssscssssssssssssss"
         inkscape:export-filename="tanecneStudiocele.svg"
         inkscape:export-xdpi="96"
         inkscape:export-ydpi="96" /><path
         d="m 35.046595,91.717089 c -1.16363,-0.35831 -1.57603,-1.07749 -1.35798,-2.36815 0.19498,-1.15409 1.27923,-2.95554 2.08191,-3.45905 0.80954,-0.50781 2.07129,-0.43373 2.72752,0.16015 0.34437,0.31165 0.40812,0.56887 0.32461,1.30975 -0.13899,1.23314 -0.4936,1.52694 -2.0088,1.66433 -1.15036,0.10432 -1.28842,0.16827 -1.37832,0.63852 -0.12459,0.65174 0.041,1.32713 0.3254,1.32713 0.11819,0 0.52931,-0.33338 0.9136,-0.74084 0.7544,-0.7999 0.9508,-0.86258 1.60526,-0.51232 0.4151,0.22216 0.41618,0.24069 0.039,0.66599 -1.078474,1.184636 -1.81976,1.756027 -3.2722,1.31449 z m 1.76901,-3.66814 c 0.0851,-0.0779 0.2122,-0.47198 0.28237,-0.8758 l 0.1276,-0.73422 -0.75863,0.79065 c -0.87591,0.91289 -0.97875,1.31522 -0.28237,1.10483 0.26193,-0.0791 0.5459,-0.2076 0.63103,-0.28546 z m -8.35749,-2.66834 0.66519,0.0316 c 1.00842,0.0479 1.41636,0.24758 1.11708,0.54686 -0.13589,0.13588 -0.24706,0.36136 -0.24706,0.50106 0,0.1397 0.32721,-0.0732 0.72713,-0.47314 0.60498,-0.60497 0.82724,-0.70318 1.32292,-0.58455 1.54662,0.37014 1.59715,0.61571 0.84487,4.10569 -0.46312,2.14851 -0.49899,2.22481 -1.07757,2.29195 -0.32918,0.0382 -0.83351,0.0105 -1.12073,-0.0616 -0.50158,-0.12589 -0.50882,-0.15154 -0.18306,-0.64871 0.3869,-0.59048 1.29032,-4.29328 1.09512,-4.48848 -0.15574,-0.15574 -1.06163,0.66552 -1.6681,1.51226 -0.24275,0.33893 -0.59947,1.291432 -0.79272,2.11667 -0.205949,0.879468 -0.652269,1.518885 -1.024824,1.572407 -0.608562,0.08743 -0.779818,0.05283 -0.834713,-0.85646 z m -5.755256,5.5516 c -0.304939,-0.70866 -0.40473,-1.41893 0.119366,-2.81968 0.533828,-1.42677 1.72796,-2.83775 2.40164,-2.83775 0.62925,0 1.84034,0.41229 2.20335,0.75009 0.2124,0.19764 0.25144,0.53764 0.144,1.2541 -0.14705,0.98058 -0.14927,0.98278 -0.9264,0.91812 -0.8139,-0.0677 -0.82779,-0.10014 -0.54931,-1.2819 0.10594,-0.44958 0.0601,-0.58208 -0.20144,-0.58208 -0.68827,0 -2.1337,3.80004 -1.63509,4.29865 0.29616,0.29617 1.20288,-0.34247 1.61345,-1.13641 0.26747,-0.51724 0.728369,-0.510833 0.633705,0.68771 -0.09466,1.198542 -3.122926,2.33023 -3.803271,0.74915 z m 14.698796,-6.00842 c -0.17463,-0.0582 -0.45229,-0.14902 -0.61704,-0.20173 -0.51783,-0.16567 1.0172,-1.56396 1.7169,-1.56396 0.32641,0 0.59347,0.0497 0.59347,0.11037 0,0.20497 -1.11346,1.79478 -1.24521,1.77792 -0.0718,-0.009 -0.2735,-0.0644 -0.44812,-0.1226 z m -12.367,-0.95199 c -0.44605,-0.89414 -0.42271,-1.02582 0.1819,-1.02582 0.32901,0 0.56341,0.15284 0.64927,0.42334 0.0739,0.23283 0.20843,0.42333 0.29895,0.42333 0.0905,0 0.337,-0.1905 0.54771,-0.42333 0.40086,-0.44295 1.05379,-0.56151 1.25948,-0.2287 0.19606,0.31723 -1.40664,1.4987 -2.03303,1.4987 -0.42943,0 -0.65396,-0.16575 -0.90428,-0.66752 z"
         style="fill:#ffffff;fill-opacity:1;stroke:#000000;stroke-width:0.3;stroke-dasharray:none;stroke-opacity:1"
         id="path1-2"
         sodipodi:nodetypes="sssssssssssssscssscsssssssssssssccsssssssssscssssscsssssssss" /><path
         style="fill:#ffffff;fill-opacity:1;stroke:#000000;stroke-width:0.128086;stroke-dasharray:none;stroke-opacity:1"
         d="m 11.341264,-9.6093067 c -0.190432,-0.9125373 -0.771547,-1.9675423 -1.6410798,-2.9793473 -0.8808675,-1.025 -1.2369944,-1.210335 -1.690267,-1.252238 -0.6868679,-0.0635 -1.3818391,-1.278917 -1.6003577,-1.793276 -0.1964803,-0.446306 0.064517,-2.627193 -0.5458928,-3.153027 -0.2112541,-0.181983 -2.03368,-4.610711 -2.03368,-4.689387 0,-0.02664 0.1112556,-0.07239 0.2472361,-0.101632 0.3269554,-0.07033 0.6433936,0.22897 0.6433936,0.608555 0,0.1659 0.2789204,0.79803 0.6198216,1.404734 0.3409031,0.606702 0.7186582,1.328676 0.839456,1.604387 0.1207977,0.27571 0.3571707,0.635752 0.5252725,0.800094 0.1681038,0.164342 0.3056412,0.350879 0.3056412,0.414526 0,0.06365 0.065205,0.115722 0.1449037,0.115722 0.1005265,0 0.1229526,-0.19915 0.073224,-0.650269 -0.049056,-0.445085 -0.014499,-0.762862 0.1095638,-1.007099 0.099681,-0.196254 0.1812386,-0.462441 0.1812386,-0.591524 0,-0.129083 0.1608044,-0.386203 0.3573368,-0.571377 0.3211328,-0.302567 0.4050367,-0.329318 0.828122,-0.264025 0.8774587,0.135413 1.3711774,0.694938 1.0997689,1.24635 -0.091942,0.186793 -0.1072189,0.190311 -0.1142053,0.0263 -0.016189,-0.380449 -0.2283127,-0.06378 -0.3025194,0.451645 -0.041987,0.291544 -0.1877251,0.658785 -0.3238906,0.816091 -0.1361605,0.157306 -0.2674454,0.379363 -0.2917354,0.493458 -0.035067,0.164815 0.021178,0.203565 0.2739179,0.188552 0.1749452,-0.01039 1.9069003,-0.05329 3.8487923,-0.09533 l 3.530714,-0.07642 v 0.281771 c 0,0.320987 -0.251877,0.444387 -0.596951,0.292465 -0.264503,-0.116448 -5.319249,0.306793 -5.923676,0.495999 -0.3818247,0.119523 -0.804053,0.613105 -0.9309072,1.088215 -0.097472,0.365084 0.2924792,0.749893 1.3089232,1.291654 0.718614,0.383019 0.846965,0.523792 0.988459,1.084131 0.129373,0.512336 0.581163,1.360643 0.724649,1.360643 0.06574,0 0.290746,-0.310608 0.499999,-0.69024 0.355011,-0.644084 0.367241,-0.706826 0.182867,-0.938301 -0.299004,-0.375394 -0.241027,-0.551679 0.235274,-0.715391 0.238071,-0.08183 0.56208,-0.292558 0.720017,-0.468286 0.338404,-0.37653 0.501152,-0.337386 0.501152,0.120534 0,0.528598 -1.185929,4.310924 -1.547286,4.383179 -0.475431,0.09506 -0.211479,0.403887 -0.23397,1.7032964 -0.01441,0.8308707 0.05584,1.6316408 0.124081,1.7793021 0.124011,0.2683181 0.374933,0.8585604 -0.361239,0.758786 -0.298274,-0.040423 -1.177343,0.3722029 -1.716704,0.410308 -0.14181,0.010068 -0.367694,-0.2219281 -0.01262,-0.3398444 1.310895,-0.4353405 1.097439,-2.1523168 0.953163,-2.8436819 z"
         id="path2-5" /><path
         d="m 44.44077,91.59124 c -0.61274,-0.1584 -0.89198,-0.38331 -1.15146,-0.92745 -0.42832,-0.89818 -0.1967,-1.1689 0.85417,-0.99836 0.65254,0.10589 0.7887,0.21456 0.7887,0.62946 0,0.65806 0.38017,0.64256 0.6343,-0.0259 0.26974,-0.70945 0.0943,-1.07588 -0.6659,-1.39076 -1.29449,-0.5362 -1.52298,-1.81118 -0.5227,-2.91676 0.74941,-0.82831 1.02964,-0.88374 2.37045,-0.46889 1.33013,0.41155 1.27948,0.32961 1.18498,1.91707 -0.0323,0.54334 -0.12182,0.63453 -0.61988,0.63176 -0.93777,-0.005 -1.16084,-0.25799 -0.99725,-1.13001 0.17884,-0.9533 -0.17827,-1.03576 -0.63773,-0.14726 -0.5218,1.00906 -0.409,1.34822 0.63859,1.91993 2.29924,1.2548 0.78827,3.59593 -1.87627,2.90713 z m 12.66225,0.11252 c -0.66662,-0.16034 -0.80006,-0.39991 -0.52223,-0.93759 0.21424,-0.41463 0.13535,-0.38269 -0.46672,0.18894 -0.7734,0.7343 -1.46547,0.86249 -2.38776,0.44227 -0.29652,-0.1351 -0.54067,-0.39704 -0.54256,-0.58208 -0.007,-0.64311 0.91871,-5.20601 1.09639,-5.40673 0.21837,-0.24667 1.68819,-0.17073 1.96021,0.10129 0.12089,0.12088 0.0718,0.34095 -0.12758,0.57191 -0.35641,0.41287 -1.31207,4.28391 -1.10697,4.48392 0.0704,0.0687 0.54585,-0.33525 1.05654,-0.89758 0.89286,-0.98312 1.56984,-2.54869 1.56984,-3.63034 0,-0.66145 0.39905,-0.94823 1.14212,-0.8208 1.15406,0.19793 1.26034,0.26086 0.99018,0.58639 -0.25531,0.30763 -1.26817,4.24345 -1.33487,5.18711 -0.0562,0.79475 -0.34416,0.9496 -1.32659,0.71329 z m 5.86554,-0.0286 c -0.17218,-0.17218 -0.21863,-0.3155 -0.0529,-0.75137 0.33919,-0.89216 0.27413,-0.89572 -0.47758,-0.0261 -0.68416,0.79144 -0.7124,0.8019 -1.48102,0.54823 -1.47233,-0.48591 -1.75752,-1.5077 -0.91976,-3.29537 0.89295,-1.90541 3.31383,-3.70733 3.83906,-2.8575 0.34877,0.56433 0.72336,-0.27495 0.85026,-1.905 0.036,-0.46197 0.1365,-0.52633 0.79178,-0.50686 1.17923,0.035 1.48629,0.21247 1.22208,0.70616 -0.24943,0.46606 -1.90582,7.31675 -1.90936,7.89695 -0.002,0.28711 -0.18079,0.36969 -0.79601,0.36718 -0.43656,-0.002 -0.94089,-0.0507 -1.06654,-0.17631 z m -0.25884,-2.40728 c 0.62756,-1.03195 1.34716,-2.91236 1.17889,-3.08063 -0.22249,-0.22249 -2.19157,1.92918 -2.35259,2.57073 -0.31773,1.26594 0.49832,1.62047 1.1737,0.5099 z m 4.10913,2.36216 -0.65582,-0.19414 0.37456,-1.11351 c 0.206,-0.61243 0.54876,-2.00352 0.76167,-3.09131 l 0.38709,-1.97779 0.81938,0.109 c 0.97979,0.13034 1.35506,0.42714 1.03857,0.82137 -0.25396,0.31634 -1.14034,3.98972 -1.18965,4.93022 -0.0374,0.71407 -0.42603,0.84468 -1.5358,0.51616 z m 4.71604,0.0196 c -1.22314,-0.23663 -1.52407,-0.65857 -1.49778,-2.10005 0.0259,-1.41876 0.84374,-3.16891 1.79862,-3.84884 1.10649,-0.78789 3.67446,-0.40513 3.9229,0.58472 0.23639,0.94187 -0.0842,2.79982 -0.64953,3.76453 -0.98379,1.6787 -1.64225,1.9734 -3.57421,1.59964 z m 1.93557,-5.25604 c -0.74576,-0.14122 -1.87706,2.6489 -1.57004,3.87217 0.17193,0.68504 0.573082,0.798197 1.337739,0.04536 0.764657,-0.752832 1.003451,-3.771504 0.232301,-3.917534 z m -24.16583,5.09972 c -0.29098,-0.075 -0.35323,-0.21666 -0.24506,-0.55753 0.5954,-1.87632 1.0019,-4.03885 0.77352,-4.11498 -0.41762,-0.13921 -0.90336,-0.71436 -0.81945,-0.97029 0.0433,-0.13201 0.35678,-0.27242 0.69668,-0.31203 0.71958,-0.0839 0.92914,-0.34088 0.93362,-1.14507 0.003,-0.5437 0.0626,-0.58187 0.90283,-0.57884 1.21745,0.004 1.61813,0.26094 1.14557,0.7335 -0.48068,0.48069 -0.44141,0.8169 0.12443,1.06515 0.26549,0.11648 0.47625,0.39628 0.47625,0.63227 0,0.32073 -0.16282,0.43912 -0.67177,0.48846 -0.6624,0.0642 -0.67789,0.0917 -1.11125,1.9739 -0.24172,1.04983 -0.43948,2.13972 -0.43948,2.42197 0,0.44289 -0.0942,0.50981 -0.68792,0.48862 -0.37835,-0.0135 -0.86344,-0.0698 -1.07797,-0.12513 z m 19.39756,-6.64609 c -0.87901,-0.2542 -1.03869,-0.54286 -0.58044,-1.04923 0.42452,-0.46908 0.8999,-0.51583 1.67131,-0.16435 0.63153,0.28774 0.64584,0.35447 0.20962,0.97726 -0.36304,0.5183 -0.33994,0.51411 -1.30049,0.23632 z m -22.82182,-0.3512 c -0.11878,-0.0855 -0.33797,-0.43262 -0.48708,-0.77132 -0.22133,-0.50275 -0.22053,-0.64789 0.004,-0.79051 0.41561,-0.26362 0.55661,-0.22118 0.80458,0.24216 0.28682,0.53593 0.67708,0.53822 1.15801,0.007 0.29737,-0.3286 0.46416,-0.36985 0.79009,-0.19541 0.3871,0.20717 0.36207,0.26625 -0.39705,0.93688 -0.78627,0.69461 -1.42927,0.89079 -1.87286,0.57139 z m 10.55242,-0.002 c -0.16846,-0.10718 -0.0163,-0.40872 0.4791,-0.94926 0.74448,-0.81237 1.03119,-0.92395 1.54232,-0.60024 0.23613,0.14955 0.18002,0.33342 -0.28971,0.94926 -0.5649,0.74062 -1.17735,0.95291 -1.73171,0.60024 z"
         style="fill:#ffffff;fill-opacity:1;stroke:#000000;stroke-width:0.3;stroke-dasharray:none;stroke-opacity:1"
         id="path1-8"
         sodipodi:nodetypes="ssssssssscssssssssscsssssssssssssssssssccssssssscsscsssssssssssscssssssscssssssssssssscscscssccsssss" /><path
         d="m 19.743495,-6.3939798 c -0.658438,-0.0556 -0.866894,-0.2108999 -0.715119,-0.6267258 0.08578,-0.2350113 1.172553,-2.5391847 1.166636,-2.8190963 -8.21e-4,-0.040546 -0.256242,-0.027337 -0.567524,0.029285 -0.49882,0.090764 -0.612452,0.069869 -0.957788,-0.1761412 -0.215503,-0.1535189 -0.391823,-0.3242339 -0.391823,-0.3793719 0,-0.111654 -0.06273,-0.101678 2.960879,-0.470822 1.197477,-0.146198 2.255398,-0.275611 2.350935,-0.287585 0.511928,-0.06415 0.62813,0.01858 0.576037,0.410225 -0.05387,0.405015 -0.05702,0.406525 -0.964023,0.463271 -0.500488,0.03133 -0.977724,0.104457 -1.060525,0.162534 -0.0828,0.05809 -0.408072,0.8370015 -0.722825,1.7309385 -0.314752,0.8939368 -0.599112,1.6862936 -0.631908,1.7607879 -0.06564,0.1491115 -0.424724,0.2549096 -1.042952,0.2027042 z m 2.731863,-0.450278 C 22.178099,-7.054917 21.934889,-7.282695 21.934889,-7.350432 c 0,-0.275417 1.566073,-1.0400535 2.771488,-1.3531835 0.69043,-0.1793504 1.246231,-0.3698809 1.235113,-0.4233971 -0.03299,-0.1587767 -0.843645,-0.071003 -1.685053,0.1824373 l -0.785474,0.2365931 -0.369443,-0.2298716 c -0.478185,-0.2975322 -0.345185,-0.3698094 1.317001,-0.7157175 1.487731,-0.309603 1.622735,-0.295551 2.467557,0.2567833 l 0.510533,0.3337808 -0.400716,1.1112611 c -0.220383,0.6111941 -0.431363,1.1775393 -0.468832,1.2585503 -0.05021,0.1085573 -0.239019,0.1273396 -0.717999,0.071428 -0.869057,-0.1014417 -0.945512,-0.1418422 -0.733938,-0.387829 0.267943,-0.3115226 0.03194,-0.2564812 -0.725162,0.1691121 -0.371056,0.2085862 -0.82303,0.3792442 -1.00439,0.3792442 -0.181361,0 -0.572956,-0.1723577 -0.870216,-0.3830173 z m 2.245825,-0.9036939 c 0.530572,-0.3021852 0.841274,-0.5473376 0.696572,-0.5496156 -0.366721,-0.00578 -2.263863,0.9534166 -2.263863,1.1446026 0,0.2215274 0.400847,0.069355 1.567291,-0.594987 z m 10.097863,1.199556 c -0.862298,-0.2178176 -1.042845,-0.4909284 -1.040705,-1.0442042 0.0033,-0.8679109 1.232887,-2.0088426 2.353413,-2.1838318 0.484815,-0.075713 1.534399,0.1180326 1.826721,0.3371951 0.234707,0.1759669 0.08929,0.9113062 -0.232667,1.1765771 -0.124774,0.1028084 -0.648332,0.2021921 -1.337018,0.2537986 -1.12729,0.084467 -1.13216,0.086314 -1.188156,0.4507489 -0.03094,0.2012657 0.0195,0.4130359 0.111999,0.4706011 0.218318,0.1358476 1.025214,-0.1867118 1.168179,-0.4669819 0.111257,-0.218123 0.709698,-0.2960216 1.106597,-0.1087978 0.228732,0.1078958 0.01859,0.4373627 -0.813688,0.9286739 -0.348591,0.2057813 -0.63681,0.2874947 -1.251388,0.287423 -0.26634,-3.12e-5 -0.473035,-0.043042 -0.703287,-0.101202 z m 1.55004,-2.0110125 c 0.269039,-0.2017059 0.428474,-0.7190861 0.221592,-0.7190861 -0.215348,0 -1.072603,0.6712268 -1.072603,0.8398424 0,0.1399891 0.620704,0.051908 0.851011,-0.1207563 z m -8.502123,1.8880406 c -0.11755,-0.1142857 -0.200317,-0.1362266 -0.06097,-0.2421423 0.203872,-0.1550037 1.094668,-2.3538913 1.094668,-2.7021436 0,-0.2764817 0.342485,-0.3492717 1.067158,-0.2268 0.597652,0.1010014 0.61947,0.1286241 0.402665,0.5097625 -0.07808,0.1373274 0.06524,0.081093 0.391255,-0.153504 0.583708,-0.4199922 1.301403,-0.4896388 2.02128,-0.1961512 0.471182,0.1921025 0.471157,0.1629074 0.0016,1.6499269 -0.242909,0.7692745 -0.33786,1.1085993 -0.386598,1.3815385 -0.01752,0.098175 -1.265293,0.1084602 -1.662151,0.013719 -0.252338,-0.060253 -0.254666,-0.087031 -0.02147,-0.2473485 0.237151,-0.1630562 0.972551,-1.8535526 0.972551,-2.2356478 0,-0.2894232 -0.332669,-0.1642545 -1.037012,0.3901834 -0.735582,0.5790304 -1.080534,1.1693896 -1.214852,2.0791089 -0.01695,0.1145724 -1.375727,0.1665422 -1.568088,-0.020477 z"
         style="fill:#ffffff;fill-opacity:1;stroke:#000000;stroke-width:0.194692;stroke-dasharray:none;stroke-opacity:1"
         id="path1-7-6"
         sodipodi:nodetypes="ssscssssssssssssssscssscsssssssssssscsssssssssssssssscssssssssssssss"
         inkscape:export-filename="tanecneStudiocele.svg"
         inkscape:export-xdpi="96"
         inkscape:export-ydpi="96" /><path
         d="m 48.751623,-6.5617865 c -0.957347,-0.1834253 -1.296638,-0.5515865 -1.117244,-1.2122986 0.160415,-0.5907993 1.052454,-1.5129938 1.712839,-1.7707502 0.666029,-0.2599564 1.704102,-0.2220334 2.243999,0.081983 0.283321,0.1595393 0.33577,0.291215 0.267064,0.6704849 -0.11435,0.6312665 -0.406096,0.781668 -1.652689,0.8520005 -0.94643,0.053404 -1.060015,0.08614 -1.133978,0.3268698 -0.102504,0.3336375 0.03374,0.6793817 0.267714,0.6793817 0.09724,0 0.435477,-0.1706632 0.751642,-0.3792493 0.620664,-0.4094831 0.782247,-0.4415703 1.320687,-0.2622658 0.341513,0.1137276 0.342403,0.1232135 0.03209,0.3409323 -0.887286,0.6064364 -1.497162,0.8989418 -2.692121,0.672911 z m 1.455409,-1.8777868 c 0.07002,-0.039879 0.174581,-0.2416151 0.232313,-0.4483378 l 0.104978,-0.3758602 -0.624142,0.4047478 c -0.720633,0.4673247 -0.805242,0.6732847 -0.232314,0.5655823 0.215497,-0.040492 0.449126,-0.1062742 0.519165,-0.1461321 z m -6.875915,-1.3659714 0.547268,0.01618 c 0.829652,0.024523 1.165274,0.1267404 0.919049,0.2799475 -0.1118,0.069562 -0.203262,0.1849865 -0.203262,0.2565018 0,0.071518 0.269204,-0.037471 0.598228,-0.2422088 0.497732,-0.3096948 0.68059,-0.3599705 1.088398,-0.2992414 1.272444,0.1894807 1.314016,0.3151927 0.695097,2.101776 -0.38102,1.0998609 -0.410531,1.1389204 -0.886543,1.1732904 -0.270826,0.019555 -0.68575,0.00538 -0.922053,-0.031534 -0.412662,-0.064446 -0.41862,-0.077576 -0.150609,-0.3320863 0.318313,-0.3022774 1.06158,-2.1978076 0.900983,-2.2977337 -0.12813,-0.079726 -0.87343,0.3406916 -1.372387,0.7741531 -0.199716,0.1735043 -0.493199,0.6611073 -0.652191,1.0835615 -0.16944,0.4502155 -0.536638,0.7775446 -0.843149,0.8049433 -0.500678,0.044757 -0.641575,0.027045 -0.686738,-0.4384372 z m -4.734993,2.8419641 c -0.250881,-0.3627759 -0.332982,-0.7263758 0.09821,-1.4434449 0.439193,-0.7303889 1.421636,-1.4526951 1.975889,-1.4526951 0.517699,0 1.514094,0.2110585 1.812751,0.3839841 0.174746,0.101175 0.206866,0.275228 0.118473,0.6419965 -0.120983,0.5019765 -0.122809,0.5031028 -0.762173,0.4700022 -0.669616,-0.034657 -0.681044,-0.051264 -0.451931,-0.6562276 0.08715,-0.2301479 0.04944,-0.2979773 -0.16573,-0.2979773 -0.566257,0 -1.755449,1.9453088 -1.345229,2.2005563 0.243658,0.1516147 0.989639,-0.1753166 1.327425,-0.5817487 0.220055,-0.2647845 0.599248,-0.2615047 0.521365,0.352051 -0.07788,0.6135553 -2.569309,1.1928867 -3.129046,0.3835035 z m 12.093065,-3.0758184 c -0.143672,-0.0298 -0.37211,-0.07629 -0.507653,-0.103269 -0.426032,-0.08481 0.836874,-0.80062 1.412536,-0.80062 0.268545,0 0.488262,0.02544 0.488262,0.05651 0,0.104929 -0.916071,0.9187809 -1.024466,0.91015 -0.05907,-0.00463 -0.225014,-0.032971 -0.368679,-0.062761 z M 40.51455,-10.52674 c -0.366975,-0.457726 -0.347773,-0.525135 0.149654,-0.525135 0.270685,0 0.463532,0.07825 0.534171,0.216715 0.0608,0.119189 0.17148,0.21671 0.245954,0.21671 0.07446,0 0.277258,-0.09752 0.450615,-0.21671 0.329796,-0.226755 0.866978,-0.287447 1.036205,-0.117075 0.161304,0.162396 -1.157278,0.76721 -1.672625,0.76721 -0.353302,0 -0.538028,-0.08485 -0.743974,-0.341715 z"
         style="fill:#ffffff;fill-opacity:1;stroke:#000000;stroke-width:0.194692;stroke-dasharray:none;stroke-opacity:1"
         id="path1-2-5"
         sodipodi:nodetypes="sssssssssssssscssscsssssssssssssccsssssssssscssssscsssssssss" /><path
         d="m 56.480444,-6.6262108 c -0.504116,-0.081087 -0.733854,-0.1962233 -0.947333,-0.4747784 -0.352391,-0.4597945 -0.161831,-0.5983809 0.702746,-0.5110784 0.53686,0.054207 0.648882,0.1098372 0.648882,0.3222319 0,0.3368727 0.312776,0.3289379 0.521856,-0.013259 0.221921,-0.3631802 0.07759,-0.5507624 -0.547853,-0.7119551 -1.065009,-0.2744904 -1.252993,-0.9271757 -0.430038,-1.4931419 0.616558,-0.4240266 0.84711,-0.4524022 1.950227,-0.2400334 1.094331,0.2106801 1.05266,0.1687338 0.974913,0.9813828 -0.02657,0.2781456 -0.100225,0.3248273 -0.509991,0.3234093 -0.771526,-0.00256 -0.955051,-0.1320696 -0.820462,-0.5784723 0.147137,-0.4880119 -0.146667,-0.5302246 -0.524676,-0.075385 -0.429297,0.5165556 -0.336494,0.6901778 0.525384,0.9828465 1.891642,0.6423546 0.648529,1.8408212 -1.543655,1.4882121 z m 10.417549,0.057601 c -0.548445,-0.082081 -0.658229,-0.2047212 -0.429651,-0.4799692 0.176259,-0.2122566 0.111355,-0.1959059 -0.383982,0.096721 -0.636296,0.3759013 -1.205679,0.4415241 -1.96447,0.2264059 -0.243955,-0.06916 -0.444823,-0.2032519 -0.446378,-0.2979773 -0.0057,-0.3292195 0.755846,-2.6650503 0.902027,-2.7678025 0.179658,-0.1262747 1.388916,-0.0874 1.612714,0.051852 0.09946,0.061883 0.05907,0.1745377 -0.104964,0.2927704 -0.293227,0.2113554 -1.079472,2.193011 -0.910731,2.2953998 0.05792,0.035169 0.449083,-0.1716205 0.869241,-0.4594874 0.734579,-0.5032768 1.291547,-1.3047202 1.291547,-1.8584364 0,-0.3386086 0.328309,-0.4854161 0.939651,-0.4201824 0.949474,0.1013241 1.036913,0.1335392 0.814645,0.3001833 -0.21005,0.1574819 -1.043354,2.1722988 -1.09823,2.6553753 -0.04623,0.4068469 -0.28315,0.4861174 -1.091419,0.3651475 z m 4.825726,-0.014641 c -0.141657,-0.088142 -0.179872,-0.1615101 -0.04352,-0.3846399 0.279061,-0.4567127 0.225535,-0.4585351 -0.392916,-0.013361 -0.562876,0.4051524 -0.586109,0.410507 -1.218473,0.2806488 -1.211322,-0.248746 -1.445955,-0.7718187 -0.756708,-1.6869591 0.734652,-0.9754135 2.72637,-1.897848 3.15849,-1.4628051 0.286941,0.2888903 0.595126,-0.1407522 0.69953,-0.9752039 0.02962,-0.236491 0.112301,-0.269438 0.651416,-0.25947 0.970183,0.01791 1.222808,0.108767 1.005436,0.361495 -0.205212,0.238586 -1.567965,3.7455757 -1.570878,4.0425904 -0.0016,0.1469769 -0.14874,0.1892511 -0.654896,0.1879662 -0.35917,-0.00102 -0.774095,-0.025954 -0.87747,-0.090256 z m -0.212955,-1.23233 c 0.51631,-0.5282737 1.108343,-1.4908895 0.969903,-1.57703 -0.183048,-0.1138967 -1.803059,0.987582 -1.935535,1.3160031 -0.261404,0.6480575 0.40998,0.8295478 0.965632,0.2610269 z m 3.380684,1.2092323 -0.53956,-0.099383 0.30816,-0.5700258 c 0.169482,-0.313514 0.451479,-1.025638 0.626646,-1.5824972 l 0.318468,-1.0124662 0.674125,0.055801 c 0.806097,0.066727 1.114841,0.2186601 0.854457,0.4204735 -0.20894,0.1619402 -0.938186,2.0424099 -0.978755,2.5238688 -0.03076,0.3655452 -0.350506,0.4324069 -1.263541,0.2642316 z m 3.880004,0.010033 c -1.006308,-0.1211351 -1.25389,-0.3371339 -1.232261,-1.0750533 0.02131,-0.7262888 0.694166,-1.6222221 1.479769,-1.9702907 0.910338,-0.4033355 3.02307,-0.2073927 3.227468,0.2993287 0.194483,0.4821604 -0.06928,1.4332785 -0.534386,1.9271308 -0.809387,0.8593568 -1.351119,1.010219 -2.94059,0.8188845 z m 1.592441,-2.6906617 c -0.613556,-0.072294 -1.544304,1.3560199 -1.291711,1.9822338 0.141451,0.3506843 0.471489,0.4086114 1.100591,0.023221 0.629103,-0.3853884 0.825564,-1.9307014 0.19112,-2.0054563 z m -19.881829,2.6106387 c -0.239397,-0.038394 -0.290611,-0.1109121 -0.201618,-0.2854097 0.489851,-0.9605218 0.824288,-2.06756 0.636395,-2.1065323 -0.343586,-0.071263 -0.743217,-0.3656939 -0.674182,-0.4967091 0.03562,-0.067577 0.293532,-0.1394566 0.573176,-0.1597335 0.592017,-0.04295 0.764426,-0.1745026 0.768113,-0.5861829 0.0024,-0.278329 0.05151,-0.297869 0.74278,-0.296319 1.001627,0.002 1.331275,0.133581 0.942489,0.375492 -0.395468,0.246075 -0.36316,0.4181874 0.102372,0.5452703 0.218425,0.059629 0.391822,0.2028634 0.391822,0.3236707 0,0.1641873 -0.133956,0.2247933 -0.552681,0.2500517 -0.544973,0.032867 -0.557718,0.046943 -0.914255,1.0104747 -0.198867,0.5374269 -0.36157,1.0953611 -0.36157,1.2398501 0,0.2267233 -0.0775,0.2609808 -0.565969,0.2501333 -0.311278,-0.00691 -0.710374,-0.035732 -0.886872,-0.064056 z m 15.958854,-3.4022525 c -0.723183,-0.130129 -0.854556,-0.2779 -0.477542,-0.53712 0.349264,-0.240131 0.740371,-0.264063 1.375028,-0.08413 0.519576,0.1473 0.531349,0.18146 0.17246,0.500277 -0.298682,0.2653278 -0.279677,0.2631829 -1.069946,0.120977 z m -18.776079,-0.179786 c -0.09772,-0.04377 -0.278055,-0.221466 -0.400732,-0.394852 -0.182094,-0.257366 -0.181436,-0.331666 0.0033,-0.404676 0.341932,-0.134952 0.457936,-0.113226 0.661947,0.123966 0.235975,0.274351 0.557051,0.275524 0.952725,0.0036 0.244653,-0.168216 0.381875,-0.189333 0.650026,-0.100036 0.318476,0.106053 0.297884,0.136297 -0.326663,0.479605 -0.646884,0.355583 -1.175896,0.456011 -1.540849,0.292504 z m 8.681738,-0.001 c -0.138595,-0.05487 -0.01342,-0.209231 0.394169,-0.485943 0.612501,-0.415868 0.848385,-0.472986 1.268905,-0.307274 0.194269,0.07656 0.148107,0.170684 -0.238351,0.485944 -0.464758,0.379136 -0.968636,0.487811 -1.424723,0.307273 z"
         style="fill:#ffffff;fill-opacity:1;stroke:#000000;stroke-width:0.194692;stroke-dasharray:none;stroke-opacity:1"
         id="path1-8-0"
         sodipodi:nodetypes="ssssssssscssssssssscsssssssssssssssssssccssssssscsscsssssssssssscssssssscssssssssssssscscscssccsssss" /></g></g></svg>
