<?xml version="1.0" encoding="UTF-8" standalone="no"?>
<svg
   role="img"
   viewBox="0 0 100 100"
   version="1.1"
   id="svg1"
   xmlns="http://www.w3.org/2000/svg"
   xmlns:svg="http://www.w3.org/2000/svg">
  <defs
     id="defs1" />
  <path
     fill="black"
     d="m 17.461304,2.9795672 c -3.999553,-3.97275295 -10.4620993,-3.97275295 -14.4616426,0 -3.99954316,3.972752 -3.99955321,10.3920038 0,14.3647528 L 35.53835,49.664998 2.9996614,81.985682 c -3.99954316,3.97275 -3.99954316,10.392 0,14.36475 3.9995433,3.972748 10.4620896,3.972748 14.4616426,0 L 49.999993,64.029751 82.538692,96.350432 c 3.999553,3.972748 10.462089,3.972748 14.461643,0 3.999555,-3.97275 3.999555,-10.392 10e-6,-14.36475 L 64.461646,49.664998 97.000335,17.34432 c 3.999555,-3.972753 3.999555,-10.3920008 0,-14.3647528 -3.999554,-3.97275295 -10.46209,-3.97275195 -14.461643,0 L 49.999993,35.300245 Z"
    />
</svg>
