<?xml version="1.0" standalone="no"?>
<!DOCTYPE svg PUBLIC "-//W3C//DTD SVG 20010904//EN"
 "http://www.w3.org/TR/2001/REC-SVG-20010904/DTD/svg10.dtd">
<svg version="1.0" xmlns="http://www.w3.org/2000/svg"
 width="50.000000pt" height="91.000000pt" viewBox="0 0 50.000000 91.000000"
 preserveAspectRatio="xMidYMid meet">

<g transform="translate(0.000000,91.000000) scale(0.100000,-0.100000)"
fill="#000000" stroke="none">
<path d="M4 864 c4 -10 14 -41 23 -68 9 -28 20 -55 24 -60 5 -6 9 -17 9 -26 0
-8 9 -32 20 -53 13 -24 20 -57 20 -94 1 -76 14 -143 31 -154 8 -5 24 -7 37 -4
17 4 29 -1 45 -21 44 -54 78 -128 84 -185 5 -52 3 -59 -21 -84 -24 -24 -36
-51 -18 -43 4 2 23 9 42 17 l36 13 -3 91 c-3 67 0 94 11 106 7 9 17 36 21 61
4 25 14 57 21 72 8 15 14 41 14 58 l0 31 -34 -28 c-25 -19 -32 -31 -27 -42 11
-19 -7 -71 -24 -71 -8 0 -16 17 -20 40 -5 32 -15 46 -51 72 -48 34 -54 54 -26
88 15 19 33 23 137 31 134 11 157 16 136 28 -7 5 -77 7 -156 5 l-144 -4 25 57
26 57 -22 18 c-27 21 -39 22 -64 3 -14 -11 -19 -28 -20 -70 0 -51 -2 -54 -16
-38 -9 10 -27 45 -40 78 -13 33 -27 62 -31 65 -4 3 -9 19 -11 35 -2 20 -9 31
-22 33 -15 3 -17 0 -12 -14z"/>
</g>
</svg>
