<?xml version="1.0" encoding="UTF-8" standalone="no"?>
<!-- Created with Inkscape (http://www.inkscape.org/) -->

<svg
   width="66.699409mm"
   height="70.8713mm"
   viewBox="0 0 66.699409 70.8713"
   version="1.1"
   id="svg1"
   xml:space="preserve"
   sodipodi:docname="phone.svg"
   inkscape:version="1.3 (0e150ed6c4, 2023-07-21)"
   inkscape:export-filename="phone.svg"
   inkscape:export-xdpi="96"
   inkscape:export-ydpi="96"
   xmlns:inkscape="http://www.inkscape.org/namespaces/inkscape"
   xmlns:sodipodi="http://sodipodi.sourceforge.net/DTD/sodipodi-0.dtd"
   xmlns="http://www.w3.org/2000/svg"
   xmlns:svg="http://www.w3.org/2000/svg"><sodipodi:namedview
     id="namedview1"
     pagecolor="#ffffff"
     bordercolor="#000000"
     borderopacity="0.25"
     inkscape:showpageshadow="2"
     inkscape:pageopacity="0.0"
     inkscape:pagecheckerboard="0"
     inkscape:deskcolor="#d1d1d1"
     inkscape:document-units="mm"
     inkscape:zoom="0.97890839"
     inkscape:cx="550.10255"
     inkscape:cy="721.72228"
     inkscape:window-width="2400"
     inkscape:window-height="1261"
     inkscape:window-x="-9"
     inkscape:window-y="-9"
     inkscape:window-maximized="1"
     inkscape:current-layer="layer1" /><defs
     id="defs1" /><g
     id="layer1"
     transform="translate(-69.982953,-164.11198)"><path
       style="fill:#000000"
       d="m 87.995144,230.97926 c -12.33452,-6.54789 -19.28872,-20.31264 -17.81742,-35.26681 4.39691,-44.68993 66.504646,-40.78872 66.504646,4.1774 0,26.56884 -25.96741,43.15043 -48.687226,31.08941 z m 28.087876,-4.5863 c 26.96299,-14.61304 17.38408,-57.02123 -12.86937,-56.97586 -32.764076,0.0491 -38.834336,48.52838 -7.440706,59.42418 4.652966,1.6149 15.147036,0.34988 20.310076,-2.44832 z m -9.46577,-8.39727 c -18.196156,-8.9081 -30.528466,-38.7043 -16.019256,-38.7043 5.26563,0 6.94144,2.76084 6.96206,11.46978 0.0263,11.1152 4.233516,15.63381 13.420906,14.41436 5.25619,-0.69766 6.20044,-0.45803 8.9804,2.27897 8.3717,8.24232 -1.73376,16.22513 -13.34411,10.54119 z"
       id="path3"
       inkscape:export-filename="phone.svg"
       inkscape:export-xdpi="96"
       inkscape:export-ydpi="96" /></g></svg>
